<mxfile host="app.diagrams.net" modified="2023-02-14T23:04:54.382Z" agent="5.0 (Windows NT 10.0; Win64; x64) AppleWebKit/537.36 (KHTML, like Gecko) Chrome/109.0.0.0 Safari/537.36" etag="zXxz7FRVWFviudsxgJNW" version="20.8.10" type="github">
  <diagram name="Page-1" id="oa_rj1SsvKNd_ocuQozC">
    <mxGraphModel dx="2074" dy="756" grid="1" gridSize="10" guides="1" tooltips="1" connect="1" arrows="1" fold="1" page="1" pageScale="1" pageWidth="850" pageHeight="1100" math="0" shadow="0">
      <root>
        <mxCell id="0" />
        <mxCell id="1" parent="0" />
        <mxCell id="oMbn2iNuThvRPHEQv8mL-1" value="" style="rounded=0;whiteSpace=wrap;html=1;" vertex="1" parent="1">
          <mxGeometry x="323" y="80" width="205" height="120" as="geometry" />
        </mxCell>
        <mxCell id="oMbn2iNuThvRPHEQv8mL-2" value="" style="endArrow=none;html=1;rounded=0;entryX=0.5;entryY=1;entryDx=0;entryDy=0;" edge="1" parent="1" target="oMbn2iNuThvRPHEQv8mL-1">
          <mxGeometry width="50" height="50" relative="1" as="geometry">
            <mxPoint x="426" y="340" as="sourcePoint" />
            <mxPoint x="450" y="260" as="targetPoint" />
          </mxGeometry>
        </mxCell>
        <mxCell id="oMbn2iNuThvRPHEQv8mL-3" value="" style="rounded=0;whiteSpace=wrap;html=1;" vertex="1" parent="1">
          <mxGeometry x="120" y="280" width="203" height="120" as="geometry" />
        </mxCell>
        <mxCell id="oMbn2iNuThvRPHEQv8mL-4" value="" style="rounded=0;whiteSpace=wrap;html=1;" vertex="1" parent="1">
          <mxGeometry x="528" y="280" width="203" height="120" as="geometry" />
        </mxCell>
        <mxCell id="oMbn2iNuThvRPHEQv8mL-5" value="" style="endArrow=none;html=1;rounded=0;exitX=1;exitY=0.5;exitDx=0;exitDy=0;entryX=0;entryY=0.5;entryDx=0;entryDy=0;" edge="1" parent="1" source="oMbn2iNuThvRPHEQv8mL-3" target="oMbn2iNuThvRPHEQv8mL-4">
          <mxGeometry width="50" height="50" relative="1" as="geometry">
            <mxPoint x="400" y="410" as="sourcePoint" />
            <mxPoint x="450" y="360" as="targetPoint" />
            <Array as="points">
              <mxPoint x="430" y="340" />
            </Array>
          </mxGeometry>
        </mxCell>
        <mxCell id="oMbn2iNuThvRPHEQv8mL-6" value="" style="endArrow=none;html=1;rounded=0;entryX=0.5;entryY=1;entryDx=0;entryDy=0;" edge="1" parent="1" target="oMbn2iNuThvRPHEQv8mL-3">
          <mxGeometry width="50" height="50" relative="1" as="geometry">
            <mxPoint x="220" y="520" as="sourcePoint" />
            <mxPoint x="230" y="470" as="targetPoint" />
          </mxGeometry>
        </mxCell>
        <mxCell id="oMbn2iNuThvRPHEQv8mL-8" value="" style="rounded=0;whiteSpace=wrap;html=1;" vertex="1" parent="1">
          <mxGeometry x="120" y="520" width="203" height="120" as="geometry" />
        </mxCell>
        <mxCell id="oMbn2iNuThvRPHEQv8mL-10" value="Gif Search Query" style="text;strokeColor=none;align=center;fillColor=none;html=1;verticalAlign=middle;whiteSpace=wrap;rounded=0;" vertex="1" parent="1">
          <mxGeometry x="340" y="125" width="170" height="30" as="geometry" />
        </mxCell>
        <mxCell id="oMbn2iNuThvRPHEQv8mL-11" value="Retrieve data" style="text;strokeColor=none;align=center;fillColor=none;html=1;verticalAlign=middle;whiteSpace=wrap;rounded=0;" vertex="1" parent="1">
          <mxGeometry x="136.5" y="325" width="170" height="30" as="geometry" />
        </mxCell>
        <mxCell id="oMbn2iNuThvRPHEQv8mL-12" value="Return Error Message" style="text;strokeColor=none;align=center;fillColor=none;html=1;verticalAlign=middle;whiteSpace=wrap;rounded=0;" vertex="1" parent="1">
          <mxGeometry x="544.5" y="325" width="170" height="30" as="geometry" />
        </mxCell>
        <mxCell id="oMbn2iNuThvRPHEQv8mL-14" value="Return data to client" style="text;strokeColor=none;align=center;fillColor=none;html=1;verticalAlign=middle;whiteSpace=wrap;rounded=0;" vertex="1" parent="1">
          <mxGeometry x="136.5" y="565" width="170" height="30" as="geometry" />
        </mxCell>
        <mxCell id="oMbn2iNuThvRPHEQv8mL-15" value="Good Search Query?" style="text;strokeColor=none;align=center;fillColor=none;html=1;verticalAlign=middle;whiteSpace=wrap;rounded=0;" vertex="1" parent="1">
          <mxGeometry x="340.5" y="340" width="170" height="30" as="geometry" />
        </mxCell>
        <mxCell id="oMbn2iNuThvRPHEQv8mL-16" value="YES" style="text;strokeColor=none;align=center;fillColor=none;html=1;verticalAlign=middle;whiteSpace=wrap;rounded=0;" vertex="1" parent="1">
          <mxGeometry x="270" y="310" width="170" height="30" as="geometry" />
        </mxCell>
        <mxCell id="oMbn2iNuThvRPHEQv8mL-17" value="NO" style="text;strokeColor=none;align=center;fillColor=none;html=1;verticalAlign=middle;whiteSpace=wrap;rounded=0;" vertex="1" parent="1">
          <mxGeometry x="410" y="310" width="170" height="30" as="geometry" />
        </mxCell>
      </root>
    </mxGraphModel>
  </diagram>
</mxfile>
